<?xml version="1.0" encoding="utf-8"?>
<!-- Generator: Adobe Illustrator 25.2.0, SVG Export Plug-In . SVG Version: 6.00 Build 0)  -->
<svg version="1.1" id="Layer_1" xmlns="http://www.w3.org/2000/svg" xmlns:xlink="http://www.w3.org/1999/xlink" x="0px" y="0px"
	 viewBox="0 0 200 200" style="enable-background:new 0 0 200 200;" xml:space="preserve">
<style type="text/css">
	.st0{fill:#3C3C3B;}
</style>
<path class="st0" d="M186.8,23.4H13.2C5.9,23.4,0,29.3,0,36.6v126.8c0,7.3,5.9,13.3,13.2,13.3h173.5c7.3,0,13.2-5.9,13.2-13.3V36.6
	C200,29.3,194.1,23.4,186.8,23.4z M60.5,108l-45.7,56.9c-0.5,0.6-1.2,0.9-2,0.9c-0.5,0-1.1-0.2-1.6-0.5c-1.1-0.9-1.2-2.4-0.4-3.5
	l45.7-56.9c0.9-1.1,2.4-1.2,3.5-0.4C61.1,105.4,61.3,106.9,60.5,108z M101.5,112.4c-0.1,0-0.1,0.1-0.2,0.1c-0.1,0.1-0.2,0.1-0.3,0.2
	c-0.1,0-0.1,0.1-0.2,0.1s-0.2,0.1-0.3,0.1h-0.1c-0.2,0-0.3,0.1-0.5,0.1l0,0l0,0c-0.2,0-0.3,0-0.5-0.1h-0.1c-0.1,0-0.2-0.1-0.3-0.1
	c-0.1,0-0.1,0-0.2-0.1c-0.1,0-0.2-0.1-0.3-0.2c-0.1,0-0.1-0.1-0.2-0.1c0,0-0.1,0-0.1-0.1L11.2,38c-1-0.9-1.2-2.5-0.3-3.5
	s2.5-1.2,3.5-0.3l85.5,73l85.5-73c1-0.9,2.6-0.8,3.5,0.3s0.8,2.6-0.3,3.5L101.5,112.4C101.6,112.4,101.6,112.4,101.5,112.4z
	 M190.8,167.2c-0.5,0.4-1,0.5-1.6,0.5c-0.7,0-1.5-0.3-2-0.9l-45.7-56.9c-0.9-1.1-0.7-2.7,0.4-3.5c1.1-0.9,2.6-0.7,3.5,0.4l45.7,56.9
	C192.1,164.8,191.9,166.3,190.8,167.2z"/>
</svg>
