<?xml version="1.0" encoding="utf-8"?>
<!-- Generator: Adobe Illustrator 25.2.0, SVG Export Plug-In . SVG Version: 6.00 Build 0)  -->
<svg version="1.1" id="Layer_1" xmlns="http://www.w3.org/2000/svg" xmlns:xlink="http://www.w3.org/1999/xlink" x="0px" y="0px"
	 viewBox="0 0 200 200" style="enable-background:new 0 0 200 200;" xml:space="preserve">
<style type="text/css">
	.st0{fill:#3C3C3B;}
</style>
<path class="st0" d="M196.1,142.4V99.5c0-15.7-3.9-30.5-10.8-43.5c1.7-2.4,2-5.6,0.4-8.2C167.6,18.3,134.9,0,100,0
	S32.3,18.3,14.4,47.7c-1.6,2.7-1.4,5.9,0.4,8.2C7.9,69,4,83.8,4,99.5v44.8c-2.3,0.8-4,2.9-4,5.4v22.8c0,3.2,2.6,5.7,5.8,5.7H13v15.1
	c0,3.8,3.1,6.9,7,6.9h22.9c3.9,0,7-3.1,7-6.9v-66.8c0-3.8-3.1-6.9-7-6.9H20c-3.9,0-7,3.1-7,6.9V144H9V99.5C9,84.8,12.6,71,19,58.8
	c3.2,0.8,6.7-0.5,8.5-3.4C42.9,30.1,70,15,100,15s57.1,15.1,72.5,40.5c1.4,2.3,3.9,3.6,6.5,3.6c0.6,0,1.3-0.1,1.9-0.2
	c6.4,12.2,9.9,26,9.9,40.7v42.6H187v-15.5c0-3.8-3.1-6.9-7-6.9h-22.9c-3.9,0-7,3.1-7,6.9v66.8c0,3.8,3.1,6.9,7,6.9H180
	c3.9,0,7-3.1,7-6.9v-17h7.2c3.2,0,5.8-2.6,5.8-5.7v-22.8C200,145.3,198.3,143.1,196.1,142.4z"/>
</svg>
