<?xml version="1.0" encoding="utf-8"?>
<!-- Generator: Adobe Illustrator 25.2.0, SVG Export Plug-In . SVG Version: 6.00 Build 0)  -->
<svg version="1.1" id="Layer_1" xmlns="http://www.w3.org/2000/svg" xmlns:xlink="http://www.w3.org/1999/xlink" x="0px" y="0px"
	 viewBox="0 0 200 200" style="enable-background:new 0 0 200 200;" xml:space="preserve">
<style type="text/css">
	.st0{fill:#3C3C3B;}
</style>
<path class="st0" d="M131.2,150.2l-77-77c0,0-54.2,52.3-54.2,54.2v40.1C0,185.5,14.5,200,32.4,200h135.2c17.9,0,32.4-14.5,32.4-32.4
	v-25.7l-30-30.5L131.2,150.2z"/>
<g>
	<path class="st0" d="M170.8,5C184.1,5,195,15.9,195,29.2v141.6c0,13.4-10.9,24.2-24.2,24.2H29.2C15.9,195,5,184.1,5,170.8V29.2
		C5,15.9,15.9,5,29.2,5H170.8 M170.8,0H29.2C13.1,0,0,13.1,0,29.2v141.6C0,186.9,13.1,200,29.2,200h141.6
		c16.1,0,29.2-13.1,29.2-29.2V29.2C200,13.1,186.9,0,170.8,0L170.8,0z"/>
</g>
</svg>
