<?xml version="1.0" encoding="utf-8"?>
<!-- Generator: Adobe Illustrator 25.0.0, SVG Export Plug-In . SVG Version: 6.00 Build 0)  -->
<svg version="1.1" id="Layer_1" xmlns="http://www.w3.org/2000/svg" xmlns:xlink="http://www.w3.org/1999/xlink" x="0px" y="0px"
	 viewBox="0 0 200 200" style="enable-background:new 0 0 200 200;" xml:space="preserve">
<style type="text/css">
	.st0{fill:#BCDFDC;}
	.st1{fill:#9BC3BE;}
	.st2{fill:#3C3C3B;}
	.st3{fill:#FFF2B0;}
	.st4{fill:#F3A39D;}
</style>
<path class="st0" d="M199.7,32.8c-0.6-3.3-2-6.4-4.1-9c-1.4-1.7-3.1-3.2-5-4.3c-1.9-1.2-4.1-2-6.3-2.5L104,0.4
	c-2.6-0.5-5.3-0.5-7.9,0L15.7,17C6.6,18.8,0,26.9,0,36.3v126.6c0,9.3,6.6,17.4,15.7,19.2L96,198.7c1.3,0.3,2.6,0.4,4,0.4
	c1.3,0,2.7-0.1,4-0.4l80.4-16.6c1.1-0.2,2.2-0.6,3.3-1c4.1-1.6,7.6-4.7,9.8-8.6c0.5-1,1-2,1.4-3c0.8-2.1,1.2-4.4,1.2-6.7V36.2
	C200,35,199.9,33.9,199.7,32.8z"/>
<path class="st1" d="M195.6,23.8c-1.4-1.7-3.1-3.2-5-4.3c-1.9-1.2-4.1-2-6.3-2.5L104,0.4c-1.3-0.3-2.6-0.4-4-0.4v199.1c0,0,0,0,0,0
	c1.3,0,2.7-0.1,4-0.4l80.4-16.6c1.1-0.2,2.2-0.6,3.3-1c4.1-1.6,7.6-4.7,9.8-8.6c0.5-1,1-2,1.4-3c0.8-2.1,1.2-4.4,1.2-6.7V36.2
	c0-1.1-0.1-2.3-0.3-3.4C199.1,29.5,197.7,26.4,195.6,23.8z"/>
<path class="st2" d="M189.8,36.3L189.8,36.3c0-4.5-3.1-8.4-7.5-9.3l-80.4-16.6c-1.3-0.3-2.6-0.3-3.8,0L17.7,26.9
	c-4.4,0.9-7.5,4.8-7.5,9.2v11.6v115c0,4.5,3.1,8.3,7.5,9.2l80.4,16.6c1.3,0.3,2.6,0.3,3.8,0l80.4-16.6c4.4-0.9,7.5-4.8,7.5-9.2V99.5
	c0-5.2-4.2-9.4-9.4-9.4h-52c-5.2,0-9.4-4.2-9.4-9.4V44.8c0-6,5.5-10.5,11.3-9.2l48.2,9.9C184.3,46.7,189.8,42.2,189.8,36.3z
	 M81.1,118.4v35.8c0,6-5.5,10.5-11.3,9.2l-33.1-6.8c-4.4-0.9-7.5-4.8-7.5-9.2V51.6c0-4.5,3.1-8.3,7.5-9.2l52-10.7
	c5.9-1.2,11.3,3.3,11.3,9.2v39.7c0,5.2-4.2,9.4-9.4,9.4H55.1c-5.2,0-9.4,4.2-9.4,9.4v0c0,5.2,4.2,9.4,9.4,9.4h16.6
	C76.9,109,81.1,113.2,81.1,118.4z M170.9,118.4v29c0,4.5-3.1,8.3-7.5,9.2l-52,10.7c-5.9,1.2-11.3-3.3-11.3-9.2v-39.7
	c0-5.2,4.2-9.4,9.4-9.4h52C166.7,109,170.9,113.2,170.9,118.4z"/>
<path class="st3" d="M111.3,167.4l52-10.7c4.4-0.9,7.5-4.8,7.5-9.2v-29c0-5.2-4.2-9.4-9.4-9.4h-52c-5.2,0-9.4,4.2-9.4,9.4v39.7
	C100,164.1,105.5,168.6,111.3,167.4z"/>
<path class="st4" d="M55.1,90.1h35.5c5.2,0,9.4-4.2,9.4-9.4V40.9c0-6-5.5-10.5-11.3-9.2l-52,10.7c-4.4,0.9-7.5,4.8-7.5,9.2v95.8
	c0,4.5,3.1,8.3,7.5,9.2l33.1,6.8c5.9,1.2,11.3-3.3,11.3-9.2v-35.8c0-5.2-4.2-9.4-9.4-9.4H55.1c-5.2,0-9.4-4.2-9.4-9.4v0
	C45.7,94.3,49.9,90.1,55.1,90.1z"/>
</svg>
