<?xml version="1.0" encoding="utf-8"?>
<!-- Generator: Adobe Illustrator 25.2.0, SVG Export Plug-In . SVG Version: 6.00 Build 0)  -->
<svg version="1.1" id="Layer_1" xmlns="http://www.w3.org/2000/svg" xmlns:xlink="http://www.w3.org/1999/xlink" x="0px" y="0px"
	 viewBox="0 0 200 200" style="enable-background:new 0 0 200 200;" xml:space="preserve">
<style type="text/css">
	.st0{fill:#FFFFFF;}
</style>
<path class="st0" d="M196.05,142.36V99.49c0-15.68-3.91-30.49-10.81-43.52c1.73-2.36,1.98-5.6,0.36-8.25
	C167.65,18.29,134.85,0,100,0S32.35,18.29,14.4,47.72c-1.62,2.65-1.37,5.89,0.36,8.25C7.86,69,3.95,83.8,3.95,99.49v44.79
	c-2.3,0.77-3.95,2.9-3.95,5.42v22.77c0,3.16,2.61,5.72,5.82,5.72h7.16v15.12c0,3.8,3.14,6.89,7,6.89h22.88c3.87,0,7-3.08,7-6.89
	v-66.78c0-3.8-3.14-6.89-7-6.89H19.99c-3.87,0-7,3.08-7,6.89v17.44H9.03V99.49c0-14.64,3.59-28.46,9.95-40.67
	c3.2,0.84,6.7-0.45,8.48-3.38C42.91,30.1,70.02,14.98,100,14.98c29.98,0,57.09,15.12,72.54,40.45c1.43,2.34,3.95,3.64,6.54,3.64
	c0.65,0,1.31-0.09,1.95-0.25c6.36,12.21,9.95,26.04,9.95,40.67v42.57h-3.95v-15.52c0-3.8-3.14-6.89-7-6.89h-22.88
	c-3.87,0-7,3.08-7,6.89v66.78c0,3.8,3.14,6.89,7,6.89h22.88c3.87,0,7-3.08,7-6.89v-17.04h7.16c3.21,0,5.82-2.56,5.82-5.72v-22.77
	C200,145.26,198.34,143.13,196.05,142.36z"/>
</svg>
