<?xml version="1.0" encoding="utf-8"?>
<!-- Generator: Adobe Illustrator 25.2.0, SVG Export Plug-In . SVG Version: 6.00 Build 0)  -->
<svg version="1.1" id="Layer_1" xmlns="http://www.w3.org/2000/svg" xmlns:xlink="http://www.w3.org/1999/xlink" x="0px" y="0px"
	 viewBox="0 0 200 200" style="enable-background:new 0 0 200 200;" xml:space="preserve">
<style type="text/css">
	.st0{fill:#FFFFFF;}
</style>
<path class="st0" d="M131.23,150.22L54.24,73.23c0,0-54.24,52.26-54.24,54.24v40.15C0,185.51,14.49,200,32.37,200h135.25
	c17.88,0,32.37-14.49,32.37-32.37v-25.71l-30-30.46L131.23,150.22z"/>
<g>
	<path class="st0" d="M170.79,5C184.14,5,195,15.86,195,29.21v141.58c0,13.35-10.86,24.21-24.21,24.21H29.21
		C15.86,195,5,184.14,5,170.79V29.21C5,15.86,15.86,5,29.21,5H170.79 M170.79,0H29.21C13.08,0,0,13.08,0,29.21v141.58
		C0,186.92,13.08,200,29.21,200h141.58c16.13,0,29.21-13.08,29.21-29.21V29.21C200,13.08,186.92,0,170.79,0L170.79,0z"/>
</g>
</svg>
